<svg width="1920" height="1080" viewBox="0 0 1920 1080" fill="none" xmlns="http://www.w3.org/2000/svg">
<rect width="1920" height="1080" fill="white"/>
<path d="M1192.53 290H106.956C102.01 290 98 294.008 98 298.953C98 303.897 102.01 307.906 106.956 307.906L108.901 307.906C136.464 311.88 168.596 309.559 175.89 329.61L337.641 774.271L338.106 775.549H1193C1466.56 775.549 1514.7 667.141 1514.7 533.413C1514.7 399.685 1370.21 290 1192.53 290ZM380.981 323.638L495.163 323.253C515.371 323.185 529.479 343.244 522.576 362.23L433.73 606.6L353.461 361.737C347.316 342.991 361.247 323.704 380.981 323.638ZM638.131 731.071C638.131 747.083 625.17 760.077 609.152 760.123L410.568 760.698L554.748 357.719C574.237 312.232 634.017 310.295 638.131 359.607V731.071ZM1090.14 715.326C1090.14 741.801 1068.67 763.263 1042.19 763.263H1014.44C998.393 763.263 985.382 750.256 985.382 734.21V519.784C941.014 596.683 891.77 739.152 748.335 758.063C730.983 760.351 715.616 746.737 715.616 729.241V357.12C715.616 330.646 737.085 309.184 763.569 309.184H1042.19C1068.67 309.184 1090.14 330.646 1090.14 357.12V715.326ZM1178.34 760.039V306.787C1276.18 306.787 1355.5 408.251 1355.5 533.413C1355.5 658.575 1276.18 760.039 1178.34 760.039Z" fill="#1D1D1B" stroke="white" stroke-width="8" stroke-miterlimit="10"/>
<path d="M1534.34 731.762C1534.34 735.257 1534.73 738.832 1535.49 742.485C1536.25 746.14 1537.46 749.523 1539.11 752.636C1540.76 755.75 1542.89 758.245 1545.5 760.119C1548.11 761.993 1551.25 762.93 1554.94 762.93C1556.34 762.93 1557.88 762.756 1559.56 762.406C1561.25 762.057 1562.71 761.453 1563.95 760.595C1565.19 759.737 1565.81 758.578 1565.81 757.116V752.16C1565.81 748.537 1565.3 745.964 1564.28 744.439C1563.27 742.914 1561.98 741.994 1560.42 741.675C1558.86 741.357 1557.26 741.198 1555.61 741.198C1554.45 741.198 1553.51 740.259 1553.51 739.101V737.576C1553.51 736.418 1554.45 735.479 1555.61 735.479H1584.31C1585.47 735.479 1586.41 736.418 1586.41 737.576V739.101C1586.41 740.259 1585.47 741.198 1584.31 741.198H1584.21C1582.56 741.198 1581.73 742.247 1581.73 744.344V747.026C1581.73 755.068 1577.81 762.664 1571.11 767.12C1571.06 767.153 1571.01 767.186 1570.96 767.219C1565.94 770.524 1559.8 772.176 1552.56 772.176C1547.22 772.176 1542.42 771.254 1538.16 769.412C1533.9 767.57 1530.28 764.996 1527.29 761.691C1524.3 758.388 1522.01 754.542 1520.42 750.158C1518.83 745.773 1518.04 741.04 1518.04 735.956C1518.04 732.779 1518.39 729.443 1519.09 725.947C1519.79 722.454 1520.95 719.07 1522.57 715.796C1524.19 712.524 1526.35 709.569 1529.05 706.932C1531.75 704.295 1535.09 702.199 1539.06 700.641C1543.04 699.084 1547.76 698.306 1553.22 698.306C1557.8 698.306 1561.76 698.877 1565.09 700.021C1568.43 701.165 1571.21 702.628 1573.44 704.406C1575.66 706.186 1577.43 708.028 1578.73 709.934C1580.03 711.841 1580.97 713.604 1581.54 715.224C1582.11 716.845 1582.4 718.069 1582.4 718.894C1582.4 719.466 1582.26 719.88 1581.97 720.133C1581.69 720.388 1581.29 720.61 1580.78 720.8L1569.17 724.891C1569.15 724.896 1569.14 724.901 1569.12 724.905C1568.88 724.968 1568.61 725.045 1568.34 725.137C1568.05 725.233 1567.75 725.28 1567.43 725.28C1567.18 725.28 1566.92 725.233 1566.67 725.137C1566.41 725.042 1566.29 724.772 1566.29 724.327C1566.29 724.01 1566.32 723.612 1566.38 723.136C1566.44 722.659 1566.48 722.008 1566.48 721.182C1566.48 716.797 1565.32 713.144 1563 710.22C1560.68 707.298 1557.16 705.835 1552.46 705.835C1548.84 705.835 1545.66 706.932 1542.93 709.124C1540.19 711.316 1538.08 714.351 1536.59 718.227C1535.09 722.103 1534.34 726.614 1534.34 731.762Z" fill="#1D1D1B" stroke="white" stroke-width="3" stroke-miterlimit="10"/>
<path d="M1610.57 731.983C1610.53 732.198 1610.83 732.294 1610.93 732.102C1612.59 728.997 1614.77 726.595 1617.49 724.899C1620.54 722.993 1623.75 722.04 1627.12 722.04C1630.11 722.04 1632.65 722.866 1634.75 724.518C1636.84 726.171 1637.89 728.617 1637.89 731.857C1637.89 733.256 1637.77 734.495 1637.51 735.575C1637.26 736.656 1636.56 737.45 1635.41 737.958L1626.45 741.58C1626.07 741.708 1625.78 741.77 1625.59 741.77C1625.02 741.77 1624.74 741.485 1624.74 740.913C1624.74 740.722 1624.8 740.436 1624.93 740.055C1625.31 739.165 1625.55 738.308 1625.64 737.481C1625.74 736.656 1625.78 735.925 1625.78 735.289C1625.78 733.573 1625.36 732.319 1624.5 731.524C1623.64 730.73 1622.57 730.333 1621.3 730.333C1619.84 730.333 1618.47 730.778 1617.2 731.667C1615.93 732.558 1614.82 733.637 1613.87 734.908C1612.92 736.167 1612.22 737.395 1611.78 738.591C1611.77 738.614 1611.77 738.637 1611.77 738.661V756.163C1611.77 758.705 1612.34 760.85 1613.48 762.597C1614.63 764.345 1616.38 765.218 1618.73 765.218C1619.62 765.218 1620.35 765.944 1620.35 766.839V769.317C1620.35 770.212 1619.62 770.937 1618.73 770.937H1591.36C1590.47 770.937 1589.74 770.212 1589.74 769.317V766.839C1589.74 765.944 1590.47 765.218 1591.36 765.218C1593.71 765.218 1595.46 764.345 1596.61 762.597C1597.75 760.85 1598.32 758.705 1598.32 756.163V744.153C1598.32 742.438 1598.21 740.786 1597.99 739.197C1597.77 737.609 1597.27 736.258 1596.51 735.146C1595.75 734.035 1594.48 733.382 1592.7 733.192C1591.93 733.13 1591.55 732.715 1591.55 731.953V728.712C1591.55 728.078 1592.03 727.664 1592.98 727.473C1597.5 726.774 1601.45 725.662 1604.85 724.137C1608.25 722.612 1610.56 721.405 1611.77 720.515C1611.96 720.388 1612.12 720.324 1612.24 720.324H1612.44C1612.56 720.324 1612.63 720.388 1612.63 720.515C1612.63 720.579 1612.55 721.055 1612.39 721.945C1612.23 722.835 1612.04 723.962 1611.82 725.328C1611.59 726.695 1611.34 728.093 1611.05 729.522C1610.87 730.41 1610.72 731.23 1610.57 731.983Z" fill="#1D1D1B" stroke="white" stroke-width="3" stroke-miterlimit="10"/>
<path d="M1664.21 722.039C1667.83 722.039 1671.19 722.754 1674.27 724.184C1677.35 725.614 1680.01 727.552 1682.23 729.998C1684.46 732.445 1686.19 735.178 1687.43 738.195C1688.67 741.214 1689.29 744.343 1689.29 747.584C1689.29 752.287 1688.17 756.496 1685.95 760.214C1683.72 763.931 1680.8 766.854 1677.18 768.983C1673.55 771.111 1669.61 772.176 1665.35 772.176C1661.73 772.176 1658.39 771.476 1655.34 770.079C1652.29 768.682 1649.64 766.79 1647.38 764.407C1645.12 762.025 1643.38 759.293 1642.14 756.21C1640.9 753.129 1640.28 749.904 1640.28 746.535C1640.28 741.898 1641.36 737.735 1643.52 734.049C1645.68 730.364 1648.57 727.441 1652.2 725.28C1655.82 723.121 1659.82 722.039 1664.21 722.039ZM1668.31 764.455C1669.52 764.455 1670.85 764.138 1672.31 763.502C1673.78 762.867 1675.06 761.755 1676.18 760.166C1677.29 758.578 1677.85 756.386 1677.85 753.589C1677.85 751.366 1677.42 748.903 1676.56 746.202C1675.7 743.502 1674.52 740.897 1673.03 738.386C1671.54 735.876 1669.79 733.811 1667.79 732.191C1665.78 730.57 1663.61 729.76 1661.25 729.76C1658.65 729.76 1656.39 730.729 1654.48 732.667C1652.58 734.606 1651.62 737.259 1651.62 740.626C1651.62 742.787 1652.05 745.234 1652.91 747.965C1653.77 750.698 1654.94 753.319 1656.44 755.829C1657.93 758.34 1659.7 760.404 1661.73 762.025C1663.76 763.645 1665.96 764.455 1668.31 764.455Z" fill="#1D1D1B" stroke="white" stroke-width="3" stroke-miterlimit="10"/>
<path d="M1744.49 751.683C1744.49 753.336 1744.6 754.972 1744.83 756.591C1745.05 758.212 1745.56 759.579 1746.35 760.69C1747.15 761.803 1748.4 762.454 1750.12 762.644C1750.63 762.708 1750.93 762.852 1751.03 763.073C1751.12 763.296 1751.17 763.566 1751.17 763.883V766.839C1751.17 767.681 1750.48 768.362 1749.64 768.364C1746.61 768.371 1744.08 768.546 1742.06 768.887C1740 769.238 1738.22 769.683 1736.72 770.222C1735.23 770.763 1733.75 771.35 1732.29 771.985C1732.04 772.112 1731.78 772.176 1731.53 772.176H1731.34C1731.21 772.176 1731.14 772.081 1731.14 771.89C1731.14 771.699 1731.26 770.732 1731.48 768.983C1731.68 767.38 1732.03 764.692 1732.53 760.92C1732.56 760.713 1732.29 760.616 1732.18 760.798C1731.35 762.292 1730.27 763.828 1728.95 765.408C1727.36 767.315 1725.44 768.92 1723.18 770.222C1720.93 771.524 1718.34 772.176 1715.41 772.176C1711.98 772.176 1709.2 771.652 1707.07 770.603C1704.94 769.555 1703.3 768.158 1702.16 766.409C1701.01 764.662 1700.24 762.692 1699.82 760.499C1699.41 758.307 1699.2 756.068 1699.2 753.78V738.052C1699.2 735.448 1698.61 733.287 1697.44 731.571C1696.26 729.855 1694.5 728.997 1692.15 728.997H1691.96C1691.06 728.997 1690.34 728.272 1690.34 727.377V724.898C1690.34 724.004 1691.06 723.278 1691.96 723.278H1710.93C1711.83 723.278 1712.55 724.003 1712.55 724.898V754.352C1712.55 756.068 1712.71 757.64 1713.03 759.07C1713.35 760.499 1714 761.643 1714.98 762.501C1715.97 763.359 1717.45 763.788 1719.42 763.788C1721.01 763.788 1722.6 763.392 1724.18 762.597C1725.77 761.803 1727.19 760.786 1728.43 759.547C1729.66 758.318 1730.52 757.044 1731.04 755.722C1731.05 755.698 1731.05 755.673 1731.05 755.648V738.052C1731.05 735.448 1730.46 733.287 1729.29 731.571C1728.11 729.855 1726.38 728.997 1724.09 728.997C1723.19 728.997 1722.47 728.272 1722.47 727.377V724.898C1722.47 724.004 1723.19 723.278 1724.09 723.278H1742.87C1743.77 723.278 1744.49 724.004 1744.49 724.898V751.683Z" fill="#1D1D1B" stroke="white" stroke-width="3" stroke-miterlimit="10"/>
<path d="M1773.44 726.757C1773.33 727.631 1774.45 728.079 1774.98 727.371C1774.99 727.357 1775 727.343 1775.01 727.33C1776.02 725.964 1777.55 724.741 1779.58 723.66C1781.62 722.58 1784.26 722.039 1787.5 722.039C1789.66 722.039 1791.95 722.485 1794.36 723.374C1796.78 724.264 1799.07 725.694 1801.23 727.663C1803.39 729.634 1805.15 732.207 1806.52 735.384C1807.89 738.562 1808.57 742.47 1808.57 747.108C1808.57 752.955 1807.52 757.736 1805.42 761.453C1803.33 765.17 1800.59 767.887 1797.22 769.603C1793.85 771.318 1790.23 772.176 1786.35 772.176C1782.14 772.176 1778.45 771.015 1775.3 768.691C1774.75 768.281 1773.96 768.696 1773.96 769.388V775.226C1773.96 777.767 1774.53 779.912 1775.67 781.66C1776.7 783.223 1778.2 784.088 1780.2 784.252C1781.4 784.352 1782.35 785.312 1782.35 786.52V787.718C1782.35 788.979 1781.33 790 1780.07 790H1754.5C1753.24 790 1752.22 788.979 1752.22 787.718V785.711C1752.22 784.758 1752.73 784.281 1753.74 784.281C1756.09 784.281 1757.83 783.407 1758.94 781.66C1760.05 779.912 1760.61 777.767 1760.61 775.226V742.438C1760.61 740.722 1760.51 739.07 1760.32 737.481C1760.13 735.893 1759.64 734.543 1758.84 733.43C1758.05 732.319 1756.76 731.666 1754.98 731.476C1754.54 731.413 1754.25 731.27 1754.13 731.047C1754 730.825 1753.93 730.555 1753.93 730.237V726.996C1753.93 726.171 1754.38 725.757 1755.27 725.757C1758.45 725.757 1761.05 725.614 1763.09 725.328C1765.12 725.042 1766.89 724.613 1768.38 724.041C1769.87 723.469 1771.35 722.835 1772.81 722.135C1773 722.008 1773.18 721.944 1773.34 721.944H1773.77C1773.89 721.944 1773.96 722.039 1773.96 722.23C1773.96 722.294 1773.94 722.454 1773.91 722.707C1773.88 722.961 1773.8 723.676 1773.67 724.851C1773.62 725.348 1773.54 725.983 1773.44 726.757ZM1773.96 753.907C1773.96 753.949 1773.96 753.992 1773.97 754.035C1774.22 755.982 1774.78 757.867 1775.63 759.689C1776.48 761.534 1777.68 763.026 1779.2 764.169C1780.73 765.313 1782.54 765.885 1784.64 765.885C1787.69 765.885 1790.07 765.123 1791.79 763.598C1793.5 762.073 1794.7 760.104 1795.36 757.688C1796.03 755.274 1796.36 752.764 1796.36 750.158C1796.36 744.058 1795.14 739.229 1792.69 735.67C1790.25 732.112 1787.05 730.332 1783.11 730.332C1780.57 730.332 1778.52 731.047 1776.96 732.477C1775.46 733.855 1774.47 735.189 1774.01 736.479C1773.97 736.575 1773.96 736.675 1773.96 736.777V753.907Z" fill="#1D1D1B" stroke="white" stroke-width="3" stroke-miterlimit="10"/>
<path d="M1816.75 772.176C1819.65 772.176 1822 769.827 1822 766.931C1822 764.034 1819.65 761.686 1816.75 761.686C1813.86 761.686 1811.51 764.034 1811.51 766.931C1811.51 769.827 1813.86 772.176 1816.75 772.176Z" fill="black" stroke="white" stroke-width="3" stroke-miterlimit="10"/>
</svg>
